<svg xmlns="http://www.w3.org/2000/svg" viewBox="0 0 38 38" width="38" height="38" color="#3d3430" fill="none" stroke="currentColor" stroke-linecap="round" stroke-linejoin="round"><defs><path id="pod" d="M7.03,12.54L22.07,12.54M28.85,12.54L30.01,12.54A0.96,0.96 0 0 1 30.97,13.5L30.97,20.84A4.62,4.62 0 0 1 26.35,25.46L15.93,25.46M9.15,25.46L7.99,25.46A0.96,0.96 0 0 1 7.03,24.5L7.03,12.54M12.54,7.03L20.84,7.03A4.62,4.62 0 0 1 25.46,11.65L25.46,22.07M25.46,28.85L25.46,30.01A0.96,0.96 0 0 1 24.5,30.97L17.16,30.97A4.62,4.62 0 0 1 12.54,26.35L12.54,15.93M12.54,9.15L12.54,7.03"/><mask id="mod" maskUnits="userSpaceOnUse" x="-2" y="-2" width="42" height="42"><use href="#pod" stroke="#fff" stroke-width="4.4"/><use href="#pod" stroke="#000" stroke-width="2.5"/></mask></defs><rect x="-2" y="-2" width="42" height="42" fill="currentColor" stroke="none" mask="url(#mod)"/></svg>